<svg id="fb995c35-e917-4604-a56e-774e4c7f4496" data-name="Layer 1" xmlns="http://www.w3.org/2000/svg" width="100.12" height="59.9" viewBox="0 0 100.12 59.9"><defs><style>.a7fa8926-c7ae-4f52-bf7f-17e8b2ec54ee{fill:#7e8f98;}.b0d77b96-dc9f-4122-8dca-100b90b75794{fill:#99ca3c;}</style></defs><path class="a7fa8926-c7ae-4f52-bf7f-17e8b2ec54ee" d="M14.58.22a3.68,3.68,0,0,1,1.51.31A3.84,3.84,0,0,1,18.16,2.6a3.68,3.68,0,0,1,.31,1.51V18a3.64,3.64,0,0,1-.31,1.51,3.84,3.84,0,0,1-2.07,2.07,3.68,3.68,0,0,1-1.51.31H9.94a.38.38,0,0,1-.43-.43V.65A.38.38,0,0,1,9.94.22Zm.28,4.05a.75.75,0,0,0-.75-.75h-1v15h1a.75.75,0,0,0,.75-.75Z"/><path class="a7fa8926-c7ae-4f52-bf7f-17e8b2ec54ee" d="M24.56,21.42a.38.38,0,0,1-.43.43H21.38a.38.38,0,0,1-.43-.43V.65a.38.38,0,0,1,.43-.43h2.75a.38.38,0,0,1,.43.43Z"/><path class="a7fa8926-c7ae-4f52-bf7f-17e8b2ec54ee" d="M33.46.31a4,4,0,0,1,1.24.83,4.12,4.12,0,0,1,.84,1.24,3.84,3.84,0,0,1,.3,1.51V5.07a.53.53,0,0,1-.4.56l-2.81.74c-.27.08-.4,0-.4-.31v-2A.71.71,0,0,0,32,3.52a.72.72,0,0,0-.52-.21h-.25a.72.72,0,0,0-.74.74V6.86a2.36,2.36,0,0,0,.12.59,1.45,1.45,0,0,0,.34.49l4,3a2,2,0,0,1,.63.88,4.88,4.88,0,0,1,.2,1v5.32a3.84,3.84,0,0,1-.3,1.51,4.12,4.12,0,0,1-.84,1.24,3.8,3.8,0,0,1-1.24.83,3.64,3.64,0,0,1-1.51.31H30.78a3.69,3.69,0,0,1-1.52-.31A3.91,3.91,0,0,1,28,20.93a4.09,4.09,0,0,1-.83-1.24,3.68,3.68,0,0,1-.31-1.51v-3a.53.53,0,0,1,.4-.56l2.82-.74c.26-.08.4,0,.4.31V18a.72.72,0,0,0,.74.74h.25a.72.72,0,0,0,.52-.21.71.71,0,0,0,.22-.53V13.94a2.9,2.9,0,0,0-.13-.71,1.17,1.17,0,0,0-.37-.56l-4-3.06a3,3,0,0,1-.67-.86,2.83,2.83,0,0,1-.2-1.15V3.89a3.68,3.68,0,0,1,.31-1.51A4.09,4.09,0,0,1,28,1.14,4.09,4.09,0,0,1,29.26.31,3.69,3.69,0,0,1,30.78,0H32A3.64,3.64,0,0,1,33.46.31Z"/><path class="a7fa8926-c7ae-4f52-bf7f-17e8b2ec54ee" d="M44.44.31a4,4,0,0,1,1.23.83,4.12,4.12,0,0,1,.84,1.24,3.85,3.85,0,0,1,.31,1.51V6.37a.52.52,0,0,1-.4.55l-2.82.44c-.26.08-.4,0-.4-.31v-3A.71.71,0,0,0,43,3.52a.7.7,0,0,0-.52-.21h-.25a.72.72,0,0,0-.52.21.71.71,0,0,0-.22.53V18a.71.71,0,0,0,.22.53.72.72,0,0,0,.52.21h.25a.7.7,0,0,0,.52-.21A.71.71,0,0,0,43.2,18V13.69c0-.28.14-.39.4-.31l2.82.38a.52.52,0,0,1,.4.55v3.87a3.85,3.85,0,0,1-.31,1.51,4.12,4.12,0,0,1-.84,1.24,3.87,3.87,0,0,1-1.23.83,3.72,3.72,0,0,1-1.52.31H41.75a3.72,3.72,0,0,1-1.52-.31A3.87,3.87,0,0,1,39,20.93a4.12,4.12,0,0,1-.84-1.24,3.85,3.85,0,0,1-.31-1.51V3.89a3.85,3.85,0,0,1,.31-1.51A4.12,4.12,0,0,1,39,1.14,4,4,0,0,1,40.23.31,3.72,3.72,0,0,1,41.75,0h1.17A3.72,3.72,0,0,1,44.44.31Z"/><path class="a7fa8926-c7ae-4f52-bf7f-17e8b2ec54ee" d="M57.79,18.18a3.68,3.68,0,0,1-.31,1.51,3.84,3.84,0,0,1-2.07,2.07,3.68,3.68,0,0,1-1.51.31H52.72a3.68,3.68,0,0,1-1.51-.31A3.8,3.8,0,0,1,50,20.93a3.91,3.91,0,0,1-.83-1.24,3.68,3.68,0,0,1-.31-1.51V3.89a3.68,3.68,0,0,1,.31-1.51A3.91,3.91,0,0,1,50,1.14,4,4,0,0,1,51.21.31,3.68,3.68,0,0,1,52.72,0H53.9a3.68,3.68,0,0,1,1.51.31,4.09,4.09,0,0,1,1.24.83,3.91,3.91,0,0,1,.83,1.24,3.68,3.68,0,0,1,.31,1.51ZM54.17,4.05a.72.72,0,0,0-.74-.74h-.24a.72.72,0,0,0-.53.21.75.75,0,0,0-.22.53V18a.75.75,0,0,0,.22.53.72.72,0,0,0,.53.21h.24a.72.72,0,0,0,.74-.74Z"/><path class="a7fa8926-c7ae-4f52-bf7f-17e8b2ec54ee" d="M70.22.65,66.57,21.42a.45.45,0,0,1-.5.43H63.35a.45.45,0,0,1-.49-.43L59.21.65c0-.29.08-.43.37-.43h3.34a.44.44,0,0,1,.47.43l1.26,13.11h.13L66,.65a.44.44,0,0,1,.47-.43h3.34C70.13.22,70.26.36,70.22.65Z"/><path class="a7fa8926-c7ae-4f52-bf7f-17e8b2ec54ee" d="M79.52,18.67v2.75a.38.38,0,0,1-.43.43H72.38a.38.38,0,0,1-.43-.43V.65a.38.38,0,0,1,.43-.43h6.71a.38.38,0,0,1,.43.43V3.4a.38.38,0,0,1-.43.43H75.56V8.28h3.06a.39.39,0,0,1,.44.44v2.75a.38.38,0,0,1-.44.43H75.56v6.34h3.53A.38.38,0,0,1,79.52,18.67Z"/><path class="a7fa8926-c7ae-4f52-bf7f-17e8b2ec54ee" d="M91.73,21.42c.06.29,0,.43-.31.43H88.61a.62.62,0,0,1-.36-.12.64.64,0,0,1-.23-.31l-2.26-7.57v8l0-.31a.36.36,0,0,1-.4.31H82.58a.38.38,0,0,1-.43-.43V.65a.38.38,0,0,1,.43-.43h4.64a3.68,3.68,0,0,1,1.51.31A3.84,3.84,0,0,1,90.8,2.6a3.68,3.68,0,0,1,.31,1.51v5a3.67,3.67,0,0,1-.59,2.06A4,4,0,0,1,89,12.61Zm-6-11.68h1a.71.71,0,0,0,.53-.22A.73.73,0,0,0,87.5,9V4.27a.73.73,0,0,0-.22-.53.75.75,0,0,0-.53-.22h-1Z"/><path class="b0d77b96-dc9f-4122-8dca-100b90b75794" d="M12.11,54.46v4.4a.61.61,0,0,1-.69.69H.69A.61.61,0,0,1,0,58.86V25.65A.61.61,0,0,1,.69,25H11.42a.61.61,0,0,1,.69.69v4.4a.61.61,0,0,1-.69.69H5.78v7.11h4.9a.62.62,0,0,1,.69.7v4.39a.61.61,0,0,1-.69.7H5.78V53.77h5.64A.61.61,0,0,1,12.11,54.46Z"/><path class="b0d77b96-dc9f-4122-8dca-100b90b75794" d="M30.15,25.65v28a6,6,0,0,1-.5,2.42,6.19,6.19,0,0,1-3.31,3.31,6,6,0,0,1-2.42.5H22a6,6,0,0,1-2.42-.5,6.19,6.19,0,0,1-3.31-3.31,6,6,0,0,1-.5-2.42v-28a.61.61,0,0,1,.7-.69H20.9a.61.61,0,0,1,.7.69V53.42a1.18,1.18,0,0,0,1.18,1.19h.4a1.18,1.18,0,0,0,1.18-1.19V25.65a.61.61,0,0,1,.7-.69h4.39A.61.61,0,0,1,30.15,25.65Z"/><path class="b0d77b96-dc9f-4122-8dca-100b90b75794" d="M49.42,58.86c.1.46-.07.69-.5.69H44.43a1,1,0,0,1-.57-.2.94.94,0,0,1-.37-.49L39.88,46.75v12.8l-.05-.49a.57.57,0,0,1-.64.49h-4.4a.61.61,0,0,1-.69-.69V25.65a.61.61,0,0,1,.69-.69H42.2a6,6,0,0,1,2.43.49,6.28,6.28,0,0,1,3.31,3.31,6,6,0,0,1,.49,2.42v8.06a5.88,5.88,0,0,1-.94,3.28A6.22,6.22,0,0,1,45,44.77ZM39.88,40.18h1.58A1.2,1.2,0,0,0,42.65,39V31.43a1.2,1.2,0,0,0-1.19-1.19H39.88Z"/><path class="b0d77b96-dc9f-4122-8dca-100b90b75794" d="M66.52,53.67a6,6,0,0,1-.5,2.42,6.19,6.19,0,0,1-3.31,3.31,6,6,0,0,1-2.42.5H58.41A6,6,0,0,1,56,59.4a6.19,6.19,0,0,1-3.31-3.31,6,6,0,0,1-.49-2.42V30.84a6,6,0,0,1,.49-2.42A6.25,6.25,0,0,1,56,25.1a6,6,0,0,1,2.42-.49h1.88a6,6,0,0,1,2.42.49A6.25,6.25,0,0,1,66,28.42a6,6,0,0,1,.5,2.42ZM60.74,31.08a1.18,1.18,0,0,0-1.19-1.18h-.4a1.15,1.15,0,0,0-.84.34,1.14,1.14,0,0,0-.34.84V53.42a1.14,1.14,0,0,0,.34.84,1.16,1.16,0,0,0,.84.35h.4a1.2,1.2,0,0,0,1.19-1.19Z"/><path class="b0d77b96-dc9f-4122-8dca-100b90b75794" d="M78.58,25a6,6,0,0,1,2.42.49,6.28,6.28,0,0,1,2,1.33,6.35,6.35,0,0,1,1.34,2,6,6,0,0,1,.49,2.42v8.06a6,6,0,0,1-.49,2.42,6.35,6.35,0,0,1-1.34,2A6.28,6.28,0,0,1,81,45a6,6,0,0,1-2.42.49H76.25v13.4a.61.61,0,0,1-.69.69h-4.4a.61.61,0,0,1-.69-.69V25.65a.61.61,0,0,1,.69-.69ZM79,31.43a1.2,1.2,0,0,0-1.19-1.19H76.25v9.94h1.58A1.2,1.2,0,0,0,79,39Z"/><path class="b0d77b96-dc9f-4122-8dca-100b90b75794" d="M100.12,54.46v4.4a.61.61,0,0,1-.69.69H88.71a.61.61,0,0,1-.69-.69V25.65a.61.61,0,0,1,.69-.69H99.43a.61.61,0,0,1,.69.69v4.4a.61.61,0,0,1-.69.69H93.8v7.11h4.89a.62.62,0,0,1,.69.7v4.39a.61.61,0,0,1-.69.7H93.8V53.77h5.63A.61.61,0,0,1,100.12,54.46Z"/></svg>