<svg id="bd2b69fb-6280-453d-a1f1-550244958f61" data-name="Layer 1" xmlns="http://www.w3.org/2000/svg" width="219.18" height="40.45" viewBox="0 0 219.18 40.45"><defs><style>.b3dd4a89-e88b-48b5-8908-498b7eb110a3{fill:#3a3b3a;}.a4a01a53-17a0-4601-9ea4-870246cf662f,.bb75d73a-3022-45d1-9d1c-329c419b9912{fill:#174c80;}.bb75d73a-3022-45d1-9d1c-329c419b9912{fill-rule:evenodd;}</style></defs><path class="b3dd4a89-e88b-48b5-8908-498b7eb110a3" d="M47.67,8.88a4.51,4.51,0,0,1,1.79.36,4.63,4.63,0,0,1,2.46,2.46,4.51,4.51,0,0,1,.36,1.79V29.91a4.51,4.51,0,0,1-.36,1.79,5,5,0,0,1-1,1.47,4.79,4.79,0,0,1-1.47,1,4.35,4.35,0,0,1-1.79.37h-5.5a.45.45,0,0,1-.51-.51V9.39a.45.45,0,0,1,.51-.51Zm.33,4.8a.86.86,0,0,0-.26-.63.84.84,0,0,0-.62-.25H46V30.6h1.17a.82.82,0,0,0,.62-.26.84.84,0,0,0,.26-.62Z" transform="translate(0)"/><path class="b3dd4a89-e88b-48b5-8908-498b7eb110a3" d="M59.5,34a.45.45,0,0,1-.51.51H55.73a.46.46,0,0,1-.52-.51v-21a.46.46,0,0,1,.52-.51H59a.45.45,0,0,1,.51.51Z" transform="translate(0)"/><path class="b3dd4a89-e88b-48b5-8908-498b7eb110a3" d="M70.05,12.65a4.64,4.64,0,0,1,1.47,1,4.83,4.83,0,0,1,1,1.46,4.56,4.56,0,0,1,.36,1.8v1.39a.63.63,0,0,1-.47.66l-3.34.88c-.32.1-.47,0-.47-.37V17.08a.89.89,0,0,0-.88-.88h-.3a.89.89,0,0,0-.88.88v2.24a3,3,0,0,0,.15.69,1.72,1.72,0,0,0,.4.59l4.8,3.59a2.38,2.38,0,0,1,.75,1,6.77,6.77,0,0,1,.24,1.19v3.74a4.52,4.52,0,0,1-.36,1.8,4.83,4.83,0,0,1-1,1.46,4.64,4.64,0,0,1-1.47,1,4.35,4.35,0,0,1-1.79.37h-1.4a4.35,4.35,0,0,1-1.79-.37,4.64,4.64,0,0,1-1.47-1,4.83,4.83,0,0,1-1-1.46,4.52,4.52,0,0,1-.36-1.8V28.11a.63.63,0,0,1,.47-.66l3.34-.88c.32-.1.47,0,.47.37v3a.89.89,0,0,0,.88.88h.3a.89.89,0,0,0,.88-.88V27.71a4.81,4.81,0,0,0-.15-.85,1.38,1.38,0,0,0-.44-.65l-4.73-3.63a3.34,3.34,0,0,1-.78-1,3.2,3.2,0,0,1-.24-1.35V16.9a4.56,4.56,0,0,1,.36-1.8,4.83,4.83,0,0,1,1-1.46,4.64,4.64,0,0,1,1.47-1,4.52,4.52,0,0,1,1.79-.37h1.4A4.52,4.52,0,0,1,70.05,12.65Z" transform="translate(0)"/><path class="b3dd4a89-e88b-48b5-8908-498b7eb110a3" d="M83.06,12.65a4.68,4.68,0,0,1,2.45,2.45,4.56,4.56,0,0,1,.37,1.8v2.2a.63.63,0,0,1-.48.66l-3.33.51c-.32.1-.48,0-.48-.37V17.08a.85.85,0,0,0-.26-.62.84.84,0,0,0-.62-.26h-.29a.84.84,0,0,0-.62.26.82.82,0,0,0-.26.62V30a.82.82,0,0,0,.26.62.84.84,0,0,0,.62.26h.29a.84.84,0,0,0,.62-.26.85.85,0,0,0,.26-.62v-4.4q0-.51.48-.36l3.33.44a.62.62,0,0,1,.48.66v3.84a4.66,4.66,0,0,1-2.82,4.25,4.39,4.39,0,0,1-1.8.37H79.87a4.39,4.39,0,0,1-1.8-.37,4.63,4.63,0,0,1-2.82-4.25V16.9a4.56,4.56,0,0,1,.37-1.8,4.68,4.68,0,0,1,2.45-2.45,4.56,4.56,0,0,1,1.8-.37h1.39A4.56,4.56,0,0,1,83.06,12.65Z" transform="translate(0)"/><path class="b3dd4a89-e88b-48b5-8908-498b7eb110a3" d="M98.88,30.16a4.52,4.52,0,0,1-.36,1.8,4.83,4.83,0,0,1-1,1.46,4.64,4.64,0,0,1-1.47,1,4.35,4.35,0,0,1-1.79.37h-1.4a4.35,4.35,0,0,1-1.79-.37A4.59,4.59,0,0,1,88.63,32a4.36,4.36,0,0,1-.37-1.8V16.9a4.39,4.39,0,0,1,.37-1.8,4.59,4.59,0,0,1,2.45-2.45,4.52,4.52,0,0,1,1.79-.37h1.4a4.52,4.52,0,0,1,1.79.37,4.64,4.64,0,0,1,1.47,1,4.83,4.83,0,0,1,1,1.46,4.56,4.56,0,0,1,.36,1.8ZM94.6,17.08a.89.89,0,0,0-.88-.88h-.3a.85.85,0,0,0-.62.26.84.84,0,0,0-.25.62V30a.84.84,0,0,0,.25.62.85.85,0,0,0,.62.26h.3A.89.89,0,0,0,94.6,30Z" transform="translate(0)"/><path class="b3dd4a89-e88b-48b5-8908-498b7eb110a3" d="M113.61,13.05l-4.32,21a.54.54,0,0,1-.59.51h-3.22a.53.53,0,0,1-.59-.51l-4.32-21c0-.34.09-.51.44-.51H105a.51.51,0,0,1,.55.51L107,26.75h.14l1.5-13.7a.52.52,0,0,1,.55-.51h4C113.51,12.54,113.66,12.71,113.61,13.05Z" transform="translate(0)"/><path class="b3dd4a89-e88b-48b5-8908-498b7eb110a3" d="M124.64,30.75V34a.45.45,0,0,1-.52.51h-8a.45.45,0,0,1-.51-.51v-21a.45.45,0,0,1,.51-.51h8a.45.45,0,0,1,.52.51v3.26a.46.46,0,0,1-.52.52H120V21h3.62a.46.46,0,0,1,.52.52v3.26a.45.45,0,0,1-.52.51H120v4.94h4.17A.46.46,0,0,1,124.64,30.75Z" transform="translate(0)"/><path class="b3dd4a89-e88b-48b5-8908-498b7eb110a3" d="M132,34c0,.34-.19.51-.55.51h-3.26q-.48,0-.48-.51v-21a.45.45,0,0,1,.51-.51h5.5a4.35,4.35,0,0,1,1.79.37,4.64,4.64,0,0,1,1.47,1,4.83,4.83,0,0,1,1,1.46,4.52,4.52,0,0,1,.36,1.8v4.5a4,4,0,0,1-.8,2.44,5.71,5.71,0,0,1-1.94,1.67L139.11,34c.07.34-.05.51-.37.51h-3.33a.68.68,0,0,1-.42-.15.7.7,0,0,1-.28-.36L132,27.23Zm0-11.65h1.17a.89.89,0,0,0,.88-.88V17.34a.89.89,0,0,0-.88-.88H132Z" transform="translate(0)"/><path class="b3dd4a89-e88b-48b5-8908-498b7eb110a3" d="M153.93,30.75V34a.45.45,0,0,1-.51.51h-7.95A.45.45,0,0,1,145,34V9.39a.45.45,0,0,1,.51-.51h7.95a.45.45,0,0,1,.51.51v3.26a.45.45,0,0,1-.51.51h-4.18v5.28h3.63a.45.45,0,0,1,.51.51v3.26a.45.45,0,0,1-.51.51h-3.63v7.51h4.18A.46.46,0,0,1,153.93,30.75Z" transform="translate(0)"/><path class="b3dd4a89-e88b-48b5-8908-498b7eb110a3" d="M167.3,13.05V30.16a4.52,4.52,0,0,1-.36,1.8,4.83,4.83,0,0,1-1,1.46,4.64,4.64,0,0,1-1.47,1,4.35,4.35,0,0,1-1.79.37h-1.4a4.35,4.35,0,0,1-1.79-.37A4.59,4.59,0,0,1,157.05,32a4.36,4.36,0,0,1-.37-1.8V13.05a.45.45,0,0,1,.51-.51h3.26a.45.45,0,0,1,.51.51V30a.89.89,0,0,0,.88.88h.3A.89.89,0,0,0,163,30V13.05a.45.45,0,0,1,.51-.51h3.26A.45.45,0,0,1,167.3,13.05Z" transform="translate(0)"/><path class="b3dd4a89-e88b-48b5-8908-498b7eb110a3" d="M174.52,34c0,.34-.18.51-.55.51h-3.26q-.48,0-.48-.51v-21a.45.45,0,0,1,.52-.51h5.49a4.39,4.39,0,0,1,1.8.37,4.63,4.63,0,0,1,2.82,4.25v4.5a4,4,0,0,1-.81,2.44,5.62,5.62,0,0,1-1.94,1.67L181.59,34c.07.34-.05.51-.37.51h-3.33a.68.68,0,0,1-.42-.15.7.7,0,0,1-.28-.36l-2.67-6.78Zm0-11.65h1.17a.84.84,0,0,0,.62-.26.82.82,0,0,0,.26-.62V17.34a.82.82,0,0,0-.26-.62.84.84,0,0,0-.62-.26h-1.17Z" transform="translate(0)"/><path class="b3dd4a89-e88b-48b5-8908-498b7eb110a3" d="M194.27,30.16a4.53,4.53,0,0,1-.37,1.8,4.65,4.65,0,0,1-1,1.46,4.54,4.54,0,0,1-1.47,1,4.35,4.35,0,0,1-1.79.37h-1.39a4.36,4.36,0,0,1-1.8-.37A4.68,4.68,0,0,1,184,32a4.36,4.36,0,0,1-.37-1.8V16.9a4.39,4.39,0,0,1,.37-1.8,4.63,4.63,0,0,1,4.25-2.82h1.39a4.66,4.66,0,0,1,3.26,1.36,4.65,4.65,0,0,1,1,1.46,4.56,4.56,0,0,1,.37,1.8ZM190,17.08a.89.89,0,0,0-.88-.88h-.29a.86.86,0,0,0-.63.26.84.84,0,0,0-.25.62V30a.84.84,0,0,0,.25.62.86.86,0,0,0,.63.26h.29A.89.89,0,0,0,190,30Z" transform="translate(0)"/><path class="b3dd4a89-e88b-48b5-8908-498b7eb110a3" d="M203.2,12.54a4.36,4.36,0,0,1,1.8.37,4.68,4.68,0,0,1,2.45,2.45,4.36,4.36,0,0,1,.37,1.8V22a4.35,4.35,0,0,1-.37,1.79,4.54,4.54,0,0,1-1,1.47,4.83,4.83,0,0,1-1.46,1,4.52,4.52,0,0,1-1.8.36h-1.72V34a.45.45,0,0,1-.51.51h-3.26a.45.45,0,0,1-.51-.51v-21a.45.45,0,0,1,.51-.51Zm.33,4.8a.84.84,0,0,0-.25-.62.86.86,0,0,0-.63-.26h-1.17v6.26h1.17a.85.85,0,0,0,.88-.87Z" transform="translate(0)"/><path class="b3dd4a89-e88b-48b5-8908-498b7eb110a3" d="M219.18,30.75V34a.45.45,0,0,1-.52.51h-7.95a.45.45,0,0,1-.51-.51v-21a.45.45,0,0,1,.51-.51h7.95a.45.45,0,0,1,.52.51v3.26a.46.46,0,0,1-.52.52h-4.17V21h3.62a.46.46,0,0,1,.52.52v3.26a.45.45,0,0,1-.52.51h-3.62v4.94h4.17A.46.46,0,0,1,219.18,30.75Z" transform="translate(0)"/><path class="a4a01a53-17a0-4601-9ea4-870246cf662f" d="M33,22.08c0-.32,0-.65,0-1a14.22,14.22,0,0,1-8.44-3.76l5.05-4.64c-.22-.26-.45-.52-.68-.76L23.76,16.6a16.83,16.83,0,0,1-2.87-4.51,25.66,25.66,0,0,1-1.52-4.56c-.33,0-.67,0-1,0s-.54,0-.81,0A16.16,16.16,0,0,1,15.91,13a13.67,13.67,0,0,1-2.32,3.27L8.84,11a10.27,10.27,0,0,0-.77.71L12.84,17a21.18,21.18,0,0,1-9,4.54c0,.19,0,.38,0,.57,0,.44,0,.87.05,1.3A15.32,15.32,0,0,1,12.38,27l-5,4.62c.23.26.46.51.7.76l5.09-4.66a16,16,0,0,1,2.78,3.89,23.19,23.19,0,0,1,1.88,5h.57c.46,0,.9,0,1.34-.06a17.94,17.94,0,0,1,1.19-4.45,13.75,13.75,0,0,1,2.37-3.79l4.47,4.9c.27-.22.53-.46.78-.7l-4.53-5a19.66,19.66,0,0,1,9-4.63C32.94,22.68,33,22.38,33,22.08Zm-19.07-4,2,2.23,1.29,1.41H8A19.93,19.93,0,0,0,13.88,18.1ZM8.16,22.78H17l-1.11,1L13.55,26A15.85,15.85,0,0,0,8.16,22.78Zm9.91,9.76a20,20,0,0,0-2.16-3.91,15.52,15.52,0,0,0-1.62-1.95l1.62-1.49,2.16-2Zm0-11.4-2.16-2.36-1.28-1.41a15.25,15.25,0,0,0,1.28-1.51,15.82,15.82,0,0,0,2.16-4Zm1-9.25a20.6,20.6,0,0,0,1.78,3.51,17,17,0,0,0,1.71,2.26l-1.71,1.57-1.78,1.64Zm1.78,17a15.27,15.27,0,0,0-1.78,3.57V23.83l1.78,2,1.32,1.45A15.35,15.35,0,0,0,20.89,28.92Zm2.05-2.45-2.05-2.24-1.33-1.45h9.13A18.66,18.66,0,0,0,22.94,26.47Zm-2.05-4.73H19.67l1.22-1.11,2.43-2.23a14.9,14.9,0,0,0,5.43,3.34Z" transform="translate(0)"/><path class="bb75d73a-3022-45d1-9d1c-329c419b9912" d="M21.28,4a3.32,3.32,0,0,1-.6.83h0a3.27,3.27,0,0,1-4.63,0h0a3.09,3.09,0,0,1-.6-.83,18.37,18.37,0,1,0,5.83,0Zm-2.92,33.5A15.37,15.37,0,1,1,33.73,22.08,15.37,15.37,0,0,1,18.36,37.45Z" transform="translate(0)"/><path class="bb75d73a-3022-45d1-9d1c-329c419b9912" d="M18.36,4.94a2.47,2.47,0,1,0-2.47-2.47A2.48,2.48,0,0,0,18.36,4.94Z" transform="translate(0)"/></svg>