<?xml version="1.0" encoding="UTF-8"?>
<svg id="Layer_1" data-name="Layer 1" xmlns="http://www.w3.org/2000/svg" version="1.1" viewBox="0 0 800 800">
  <defs>
    <style>
      .cls-1 {
        fill: none;
        stroke: #000;
        stroke-linecap: round;
        stroke-linejoin: round;
        stroke-width: 66.7px;
      }
    </style>
  </defs>
  <path class="cls-1" d="M171.3,425.7c-46-83.4-71.3-182.4-71.3-292.3l65.6-16.4c24-6,36-9,46.8-7,9.5,1.8,18.2,6.3,25.2,12.9,7.9,7.5,12.5,19,21.7,42l23.7,59.2c6.2,15.5,9.3,23.3,9.9,31.1.5,7-.5,13.9-2.9,20.5-2.7,7.4-7.8,14-18.1,27.2l-100.5,122.8ZM171.3,425.7c50.7,92,126.5,165,220.9,212.4M392.2,638.1c79.5,40,172.3,61.9,274.5,61.9l16.4-65.6c6-24,9-36,7-46.8-1.8-9.5-6.3-18.2-12.9-25.2-7.5-7.9-19-12.5-42-21.7l-52.8-21.1c-17.7-7.1-26.6-10.6-35.4-10.9-7.8-.2-15.6,1.3-22.6,4.6-8,3.7-14.8,10.5-28.2,24l-103.8,100.8Z"/>
</svg>